<?xml version="1.0" encoding="UTF-8" standalone="no"?><!DOCTYPE svg PUBLIC "-//W3C//DTD SVG 1.1//EN" "http://www.w3.org/Graphics/SVG/1.1/DTD/svg11.dtd"><svg width="100%" height="100%" viewBox="0 0 14382 3500" version="1.1" xmlns="http://www.w3.org/2000/svg" xmlns:xlink="http://www.w3.org/1999/xlink" xml:space="preserve" xmlns:serif="http://www.serif.com/" style="fill-rule:evenodd;clip-rule:evenodd;stroke-linejoin:round;stroke-miterlimit:2;"><path d="M390.143,221.429c163.895,-0 276.128,56.547 336.698,169.642c27.316,52.381 40.974,113.096 40.974,182.143l-213.777,0c0,-92.857 -41.568,-146.428 -124.703,-160.714c-14.252,-2.381 -28.504,-3.571 -42.755,-3.571c-73.635,-0 -121.734,27.976 -144.3,83.928c-7.126,19.048 -10.689,38.691 -10.689,58.929c1.188,69.047 32.661,122.619 94.419,160.714l292.161,169.643c109.264,65.476 164.489,163.69 165.677,294.643c-0,205.952 -102.732,321.428 -308.195,346.428c-27.316,3.572 -55.819,5.357 -85.51,5.357c-251.782,0 -381.829,-110.119 -390.143,-330.357l-0,-21.428l213.777,-0c-0,103.571 54.038,158.333 162.114,164.285l19.596,0c115.202,-2.381 173.397,-51.19 174.584,-146.428c0,-58.333 -23.753,-102.976 -71.259,-133.929c-4.75,-3.571 -9.501,-6.547 -14.251,-8.928l-261.877,-151.786c-135.392,-80.952 -203.682,-189.881 -204.869,-326.786c-0,-154.762 60.57,-259.524 181.71,-314.285c55.819,-25 119.359,-37.5 190.618,-37.5Z" style="fill-rule:nonzero;"/><path d="M2679.34,250l276.128,-0l281.473,1250l-215.558,-0l-64.133,-310.714l-281.473,-0l-62.352,310.714l-213.776,-0l279.691,-1250Zm240.499,751.786l-103.326,-501.786l-101.544,501.786l204.87,-0Z" style="fill-rule:nonzero;"/><path d="M595.012,2000l213.777,-0l-0,532.143l142.517,-0l219.122,-532.143l217.339,-0l-258.313,625l258.313,625l-217.339,0l-219.122,-532.143l-142.517,0l-0,532.143l-213.777,0l-0,-1250Z" style="fill-rule:nonzero;"/><path d="M3017.82,2000l195.962,-0l340.261,775l0,-775l211.995,-0l0,1250l-194.18,0l-340.262,-776.786l0,776.786l-213.776,0l-0,-1250Z" style="fill-rule:nonzero;"/><path d="M1777.91,1150c-0,-50 -22.566,-88.095 -67.696,-114.286c-21.378,-11.904 -43.349,-17.857 -65.915,-17.857l-188.836,0l0,482.143l-213.777,-0l0,-667.857l340.262,-0c96.199,-0 157.957,-40.476 185.273,-121.429c7.126,-23.809 10.689,-50 10.689,-78.571c-0,-102.381 -43.943,-164.881 -131.829,-187.5c-19.003,-4.762 -40.38,-7.143 -64.133,-7.143l-340.262,-0l0,-187.5l374.11,-0c182.898,-0 299.881,69.643 350.95,208.929c16.627,47.619 24.94,100.595 24.94,158.928c-1.187,145.238 -48.099,248.214 -140.736,308.929c84.323,45.238 130.641,118.452 138.955,219.643c1.188,10.714 1.781,20.238 1.781,28.571l0,825l160.333,-0c182.898,-0 299.881,69.643 350.95,208.929c16.627,47.619 24.941,100.595 24.941,158.928c-1.188,145.238 -48.1,248.214 -140.737,308.929c84.323,45.238 130.642,118.452 138.955,219.643c1.188,10.714 1.782,20.238 1.782,28.571l-0,325l-213.777,0l0,-350c0,-50 -22.565,-88.095 -67.696,-114.286c-21.378,-11.904 -43.349,-17.857 -65.914,-17.857l-188.837,0l0,482.143l-213.776,-0l-0,-667.857l340.261,-0c96.2,-0 157.957,-40.476 185.273,-121.429c7.126,-23.809 10.689,-50 10.689,-78.571c0,-102.381 -43.943,-164.881 -131.829,-187.5c-19.002,-4.762 -40.38,-7.143 -64.133,-7.143l-340.261,-0l-0,-1037.5Z" style="fill-rule:nonzero;"/><g><path d="M5359.78,1125l469.643,-0c186.905,-0 307.738,73.214 362.5,219.643c20.238,53.571 30.357,114.286 30.357,182.143c0,182.143 -64.881,304.762 -194.643,367.857c-55.952,27.381 -122.023,41.071 -198.214,41.071l-312.5,0l0,439.286l-157.143,0l0,-1250Zm157.143,678.571l289.286,0c117.857,0 196.428,-48.809 235.714,-146.428c15.476,-38.095 23.214,-81.548 23.214,-130.357c0,-144.048 -58.928,-230.357 -176.785,-258.929c-26.191,-5.952 -53.572,-8.928 -82.143,-8.928l-289.286,-0l0,544.642Z" style="fill-rule:nonzero;"/><path d="M6388.36,1482.14l103.571,-0l16.072,69.643c40.476,-65.476 97.023,-98.215 169.642,-98.215c48.81,0 91.667,10.715 128.572,32.143l-0,119.643c-38.095,-21.428 -77.976,-32.143 -119.643,-32.143c-54.762,0 -97.024,26.191 -126.786,78.572c-19.047,33.333 -28.571,72.619 -28.571,117.857l-0,605.357l-142.857,0l-0,-892.857Z" style="fill-rule:nonzero;"/><path d="M6934.78,1482.14l142.857,-0l0,892.857l-142.857,0l0,-892.857Zm0,-357.143l142.857,-0l0,167.857l-142.857,0l0,-167.857Z" style="fill-rule:nonzero;"/><path d="M7204.43,1482.14l137.5,-0l198.214,728.571l201.786,-728.571l144.643,-0l-253.571,892.857l-183.929,0l-244.643,-892.857Z" style="fill-rule:nonzero;"/><path d="M8313.35,1453.57c172.619,0 276.785,56.548 312.5,169.643c8.333,26.191 12.5,54.167 12.5,83.929l-0,667.857l-105.357,0l-19.643,-94.643c-61.905,82.143 -153.572,123.214 -275,123.214c-135.715,0 -220.834,-47.619 -255.357,-142.857c-9.524,-27.381 -14.286,-57.143 -14.286,-89.285c-0,-146.429 87.5,-246.429 262.5,-300c75,-22.619 163.095,-35.119 264.286,-37.5l-0,-126.786c-2.381,-91.667 -63.096,-138.095 -182.143,-139.286c-121.429,1.191 -182.738,47.619 -183.929,139.286l0,32.143l-142.857,-0l-0,-32.143c-0,-120.238 59.524,-198.214 178.571,-233.929c42.858,-13.095 92.262,-19.643 148.215,-19.643Zm182.143,633.929l-0,-158.929c-257.143,8.334 -386.31,81.548 -387.5,219.643c-0,69.048 33.928,113.096 101.785,132.143c20.238,5.953 41.667,8.929 64.286,8.929c85.714,-0 148.81,-30.357 189.286,-91.072c21.428,-32.143 32.143,-69.047 32.143,-110.714Z" style="fill-rule:nonzero;"/><path d="M8925.85,1205.36l108.928,0l0,276.786l237.5,-0l0,107.143l-237.5,-0l0,575c0,65.476 27.381,104.166 82.143,116.071c9.524,2.381 19.048,3.572 28.572,3.572c47.619,-1.191 89.881,-14.286 126.785,-39.286l0,114.286c-51.19,29.761 -107.143,44.642 -167.857,44.642c-91.667,0 -154.762,-37.5 -189.286,-112.5c-15.476,-33.333 -23.214,-70.833 -23.214,-112.5l0,-589.285l-110.714,-0l-0,-107.143l110.714,-0l33.929,-276.786Z" style="fill-rule:nonzero;"/><path d="M9725.85,1453.57c160.714,0 265.476,84.524 314.285,253.572c19.048,64.286 28.572,138.095 28.572,221.428c-0,20.239 -0.595,35.119 -1.786,44.643l-541.071,0c19.047,201.191 89.285,305.953 210.714,314.286c91.667,-2.381 152.976,-53.571 183.929,-153.571l144.642,-0c-33.333,141.666 -111.309,227.976 -233.928,258.928c-29.762,7.143 -61.31,10.714 -94.643,10.714c-163.095,0 -270.833,-81.547 -323.214,-244.642c-21.429,-66.667 -32.143,-143.453 -32.143,-230.358c-0,-227.381 63.69,-374.404 191.071,-441.071c45.238,-22.619 96.429,-33.929 153.572,-33.929Zm198.214,417.858c-13.095,-200 -79.167,-300.596 -198.214,-301.786c-121.429,2.381 -188.096,102.976 -200,301.786l398.214,-0Z" style="fill-rule:nonzero;"/><path d="M10822.3,1258.93l0,508.928l251.786,0c125,0 205.357,-49.405 241.071,-148.214c11.905,-32.143 17.858,-67.857 17.858,-107.143c-0,-125 -51.191,-204.167 -153.572,-237.5c-32.143,-10.714 -67.262,-16.071 -105.357,-16.071l-251.786,-0Zm0,641.071l0,475l-155.357,0l0,-1250l437.5,-0c176.191,-0 292.857,64.286 350,192.857c23.81,52.381 35.714,113.095 35.714,182.143c-1.19,159.524 -60.119,268.452 -176.785,326.786c98.809,34.524 156.547,104.762 173.214,210.714c2.381,19.048 3.571,37.5 3.571,55.357l0,214.286c1.191,34.524 13.096,57.143 35.715,67.857l-162.5,0c-19.048,-10.714 -29.167,-33.333 -30.357,-67.857l-0,-235.714c-0,-59.524 -26.191,-107.143 -78.572,-142.858c-29.762,-19.047 -61.309,-28.571 -94.643,-28.571l-337.5,0Z" style="fill-rule:nonzero;"/><path d="M12025.9,1453.57c160.714,0 265.476,84.524 314.285,253.572c19.048,64.286 28.572,138.095 28.572,221.428c-0,20.239 -0.595,35.119 -1.786,44.643l-541.071,0c19.047,201.191 89.285,305.953 210.714,314.286c91.667,-2.381 152.976,-53.571 183.929,-153.571l144.642,-0c-33.333,141.666 -111.309,227.976 -233.928,258.928c-29.762,7.143 -61.31,10.714 -94.643,10.714c-163.095,0 -270.833,-81.547 -323.214,-244.642c-21.429,-66.667 -32.143,-143.453 -32.143,-230.358c-0,-227.381 63.69,-374.404 191.071,-441.071c45.238,-22.619 96.429,-33.929 153.572,-33.929Zm198.214,417.858c-13.095,-200 -79.167,-300.596 -198.214,-301.786c-121.429,2.381 -188.096,102.976 -200,301.786l398.214,-0Z" style="fill-rule:nonzero;"/><rect x="12566.9" y="1125" width="141.071" height="1250" style="fill-rule:nonzero;"/><path d="M13245.5,1453.57c172.619,0 276.785,56.548 312.5,169.643c8.333,26.191 12.5,54.167 12.5,83.929l-0,667.857l-105.358,0l-19.642,-94.643c-61.905,82.143 -153.572,123.214 -275,123.214c-135.715,0 -220.834,-47.619 -255.358,-142.857c-9.523,-27.381 -14.285,-57.143 -14.285,-89.285c-0,-146.429 87.5,-246.429 262.5,-300c75,-22.619 163.095,-35.119 264.285,-37.5l0,-126.786c-2.381,-91.667 -63.095,-138.095 -182.142,-139.286c-121.429,1.191 -182.739,47.619 -183.929,139.286l-0,32.143l-142.857,-0l-0,-32.143c-0,-120.238 59.524,-198.214 178.571,-233.929c42.857,-13.095 92.262,-19.643 148.215,-19.643Zm182.142,633.929l0,-158.929c-257.142,8.334 -386.309,81.548 -387.5,219.643c0,69.048 33.929,113.096 101.786,132.143c20.238,5.953 41.667,8.929 64.286,8.929c85.714,-0 148.809,-30.357 189.286,-91.072c21.428,-32.143 32.142,-69.047 32.142,-110.714Z" style="fill-rule:nonzero;"/><path d="M13693.7,1482.14l150,-0l192.857,692.857l194.643,-692.857l150,-0l-339.286,1112.5c-35.714,109.524 -107.143,164.881 -214.286,166.071c-51.19,0 -104.166,-8.928 -158.928,-26.785l-0,-101.786c38.095,11.905 76.786,17.857 116.071,17.857c52.381,-0 87.5,-19.643 105.357,-58.929c4.762,-8.333 8.334,-17.262 10.715,-26.785l60.714,-200l-267.857,-882.143Z" style="fill-rule:nonzero;"/></g><rect x="4516.03" y="0" width="93.75" height="3500"/></svg>